<?xml version="1.0" standalone="no"?>
<!DOCTYPE svg PUBLIC "-//W3C//DTD SVG 20010904//EN"
 "http://www.w3.org/TR/2001/REC-SVG-20010904/DTD/svg10.dtd">
<svg version="1.0" xmlns="http://www.w3.org/2000/svg"
 width="500.000000pt" height="500.000000pt" viewBox="0 0 500.000000 500.000000"
 preserveAspectRatio="xMidYMid meet">

<g transform="translate(0.000000,500.000000) scale(0.100000,-0.100000)"
fill="#000000" stroke="none">
<path d="M2275 4414 c-328 -49 -592 -147 -840 -312 -286 -190 -516 -453 -664
-756 -62 -128 -133 -338 -161 -481 -31 -155 -39 -464 -16 -625 125 -861 775
-1516 1634 -1645 127 -19 417 -19 544 0 414 62 789 249 1078 536 305 303 492
675 554 1100 20 135 20 401 1 538 -102 718 -594 1314 -1280 1550 -215 75 -326
93 -590 96 -126 2 -243 1 -260 -1z m-598 -1109 c40 -88 103 -229 140 -312 60
-138 83 -176 83 -141 0 6 55 148 122 315 l122 303 233 0 c128 0 233 -2 233 -4
0 -2 -106 -208 -235 -458 l-236 -453 20 -35 c141 -257 481 -882 481 -886 0 -2
-111 -3 -246 -2 l-246 3 -97 205 c-53 113 -121 260 -151 328 -30 67 -57 119
-61 115 -4 -5 -29 -62 -56 -128 -27 -66 -90 -211 -139 -322 l-89 -203 -233 0
c-214 0 -234 1 -228 17 4 9 115 219 246 467 132 247 240 455 240 461 0 6 -97
193 -216 416 -119 222 -225 421 -235 442 l-20 37 248 -2 247 -3 73 -160z
m2383 -20 l0 -185 -365 0 -365 0 0 -200 0 -200 310 0 310 0 0 -185 0 -185
-310 0 -310 0 0 -350 0 -350 -225 0 -225 0 0 920 0 920 590 0 590 0 0 -185z"/>
</g>
</svg>
